<?xml version="1.0" standalone="no"?>
<!DOCTYPE svg PUBLIC "-//W3C//DTD SVG 20010904//EN"
 "http://www.w3.org/TR/2001/REC-SVG-20010904/DTD/svg10.dtd">
<svg version="1.0" xmlns="http://www.w3.org/2000/svg"
 width="1254.000000pt" height="1254.000000pt" viewBox="0 0 1254.000000 1254.000000"
 preserveAspectRatio="xMidYMid meet">

<g transform="translate(0.000000,1254.000000) scale(0.100000,-0.100000)"
fill="#000000" stroke="none">
<path d="M2867 9334 c-4 -4 -7 -1240 -7 -2746 l0 -2738 524 0 525 0 416 428
416 427 -491 3 -490 2 0 1880 0 1880 499 0 c550 0 638 -6 843 -59 297 -77 554
-225 766 -440 198 -201 347 -457 431 -739 59 -200 81 -361 81 -601 l1 -175 53
55 c251 256 796 843 796 857 0 27 -46 187 -85 295 -181 505 -519 929 -980
1230 -339 221 -706 353 -1180 424 -95 14 -245 17 -1110 20 -550 2 -1004 1
-1008 -3z"/>
<path d="M8754 8563 c-724 -748 -920 -954 -1954 -2058 -1333 -1422 -1765
-1880 -2080 -2203 -162 -167 -326 -337 -363 -378 l-69 -74 525 0 524 0 235
248 c495 523 947 1001 1277 1352 189 201 423 448 520 550 97 102 289 304 426
450 287 303 684 723 1094 1155 337 355 787 821 1025 1063 l170 172 -531 0
-531 0 -268 -277z"/>
<path d="M7653 5902 c-166 -174 -302 -321 -302 -327 0 -5 84 -98 186 -205 287
-300 1043 -1081 1270 -1313 l204 -207 580 2 580 3 -118 126 c-65 70 -410 441
-768 825 -357 385 -776 834 -930 998 -154 164 -304 325 -333 357 -30 33 -57
59 -60 59 -4 -1 -143 -144 -309 -318z"/>
</g>
</svg>
